# xmcd
#
# Track frame offsets:
#	150
#	24187
#	47652
#	66405
#	88717
#	109387
#	131815
#	156467
#
# Disc length: 2372 seconds
#
# Revision: 1
# Processed by: cddbd v1.4PL0 Copyright (c) Steve Scherf et al.
# Submitted via: audiograbber 1.82.01
#
DISCID=6e094208
DTITLE=Najwa Karam - Hazzi helo
DYEAR=1900
DGENRE=
TTITLE0=3ala Mahlak
TTITLE1=Hazzi Helo
TTITLE2=Ba3dak Ma Bta3refni
TTITLE3=El Gherbal
TTITLE4=El Dal3ouna
TTITLE5=Bta3mol Ray
TTITLE6=Kossa Gharibeh
TTITLE7=Khayarouni
EXTD=
EXTT0=
EXTT1=
EXTT2=
EXTT3=
EXTT4=
EXTT5=
EXTT6=
EXTT7=
PLAYORDER=
